<svg width="512" height="370" viewBox="0 0 512 370" fill="none" xmlns="http://www.w3.org/2000/svg">
<path d="M399.109 72.9971L410.158 80.9967C429.373 96.4961 440.422 113.995 442.824 133.995C463.481 129.995 489.902 132.995 501.431 140.994L512 147.494L510.078 151.494C506.716 158.994 505.755 160.994 505.275 161.993C486.539 199.492 449.55 199.992 432.256 199.492C388.541 308.988 295.346 369.485 169.484 369.485C111.357 369.485 67.1618 350.986 37.3778 314.487C-2.01394 266.489 -2.01394 203.992 1.34877 183.993L2.30954 179.993H349.629C367.884 179.993 381.815 174.993 388.541 170.993C381.335 159.994 378.933 147.494 378.452 140.494C377.011 120.495 381.815 99.496 391.423 84.4966L399.109 72.9971ZM92.6223 119.995V169.993H39.7797V119.995H92.6223ZM155.073 119.995V169.993H102.23V119.995H155.073ZM217.523 119.995V169.993H164.68V119.995H217.523ZM279.973 119.995V169.993H227.131V119.995H279.973ZM342.423 119.995V169.993H289.581V119.995H342.423ZM279.973 59.9976V109.996H227.131V59.9976H279.973ZM217.523 59.9976V109.996H164.68V59.9976H217.523ZM155.073 59.9976V109.996H102.23V59.9976H155.073ZM279.973 0V49.998H227.131V0H279.973Z" fill="#2396ED"/>
</svg>
