<svg width="506" height="512" viewBox="0 0 506 512" fill="none" xmlns="http://www.w3.org/2000/svg">
<path fill-rule="evenodd" clip-rule="evenodd" d="M396.735 394.5C396.735 421.95 333.147 444.067 254.748 444.067C176.349 444.067 112.76 421.752 112.76 394.5C112.76 367.051 176.349 344.933 254.748 344.933C333.147 344.933 396.735 367.051 396.735 394.5Z" fill="#9EDCF2"/>
<mask id="mask0_308_2963" style="mask-type:luminance" maskUnits="userSpaceOnUse" x="174" y="378" width="159" height="134">
<path fill-rule="evenodd" clip-rule="evenodd" d="M193.727 483.366C196.886 498.177 204.588 506.866 212.29 512H293.453C303.327 505.286 313.399 492.647 313.399 468.95V407.731C313.399 407.731 314.584 392.525 328.605 387.588C328.605 387.588 336.701 381.862 328.012 378.702C328.012 378.702 289.504 375.542 289.504 407.139V453.744C289.504 453.744 291.084 470.924 282 478.034V420.37C282 420.37 282.592 402.004 292.071 395.093C292.071 395.093 298.39 383.836 284.567 386.798C284.567 386.798 258.105 390.551 256.92 421.555L256.327 480.798H250.008L249.416 421.555C248.231 390.748 221.769 386.798 221.769 386.798C207.945 383.639 214.264 395.093 214.264 395.093C223.743 402.004 224.336 420.37 224.336 420.37V478.626C215.252 472.109 216.832 453.744 216.832 453.744V407.139C216.832 375.542 178.323 378.702 178.323 378.702C169.437 381.862 177.731 387.588 177.731 387.588C191.554 392.723 192.937 407.731 192.937 407.731V450.584L193.727 483.366Z" fill="white"/>
</mask>
<g mask="url(#mask0_308_2963)">
<path fill-rule="evenodd" clip-rule="evenodd" d="M396.735 394.5C396.735 421.95 333.147 444.067 254.748 444.067C176.349 444.067 112.76 421.752 112.76 394.5C112.76 367.051 176.349 344.933 254.748 344.933C333.147 344.933 396.735 367.051 396.735 394.5Z" fill="#7DBCE7"/>
</g>
<path fill-rule="evenodd" clip-rule="evenodd" d="M92.6176 248.563L88.4705 262.782C88.4705 262.782 87.4831 267.916 92.2226 268.904C97.3571 268.706 96.9621 263.967 96.5671 262.584L92.6176 248.563Z" fill="#9EDCF2"/>
<path fill-rule="evenodd" clip-rule="evenodd" d="M505.151 188.727L505.546 186.95C463.878 178.656 421.222 178.458 395.353 179.643C399.5 164.437 400.882 146.664 400.882 127.114C400.882 98.8744 390.218 76.3618 373.235 59.3786C376.197 49.7022 380.147 28.177 369.285 0.727442C369.285 0.727442 349.932 -5.3944 305.895 24.0299C288.714 19.6854 270.348 17.5131 251.983 17.5131C231.84 17.5131 211.5 20.0804 192.344 25.2148C146.924 -5.78936 126.979 0.529963 126.979 0.529963C113.945 33.114 122.042 57.4039 124.412 63.3282C109.008 79.9164 99.7268 101.047 99.7268 126.916C99.7268 146.467 101.899 164.042 107.428 179.248C81.3613 178.261 40.2857 178.656 0 186.752L0.394958 188.53C40.6806 180.433 82.1512 180.236 108.021 181.223C109.206 184.383 110.588 187.542 111.97 190.505C86.2982 191.294 42.6554 194.652 0.789915 206.5L1.38235 208.278C43.6428 196.429 87.6806 193.269 113.155 192.479C128.559 220.916 158.575 239.479 212.29 245.206C204.588 250.341 196.886 259.03 193.727 273.841C183.26 278.778 150.479 291.021 130.731 257.055C130.731 257.055 119.672 236.912 98.5419 235.332C98.5419 235.332 78.0041 234.937 97.1596 248.168C97.1596 248.168 110.786 254.685 120.265 278.975C120.265 278.975 132.706 320.446 192.147 307.017V349.475C192.147 349.475 190.962 364.681 176.941 369.618C176.941 369.618 168.647 375.345 177.533 378.504C177.533 378.504 216.042 381.664 216.042 350.067V303.462C216.042 303.462 214.462 284.899 223.546 278.58V355.202C223.546 355.202 222.954 373.567 213.475 380.479C213.475 380.479 207.155 391.735 220.979 388.773C220.979 388.773 247.441 385.021 248.626 354.017L249.218 276.408H255.538L256.13 354.017C257.315 384.824 283.777 388.773 283.777 388.773C297.601 391.933 291.281 380.479 291.281 380.479C281.802 373.567 281.21 355.202 281.21 355.202V279.173C290.294 286.282 288.714 303.462 288.714 303.462V350.067C288.714 381.664 327.222 378.504 327.222 378.504C336.109 375.345 327.815 369.618 327.815 369.618C313.991 364.483 312.609 349.475 312.609 349.475V288.257C312.609 264.362 302.538 251.723 292.664 245.206C349.932 239.479 377.382 221.114 390.021 192.282C415.1 192.874 460.323 196.034 503.373 208.278L503.966 206.5C461.113 194.454 416.285 191.294 390.811 190.505C391.995 187.542 392.983 184.58 393.97 181.421C420.432 180.433 463.285 180.433 505.151 188.727Z" fill="#010101"/>
<path fill-rule="evenodd" clip-rule="evenodd" d="M344.798 125.732C357.042 136.988 364.348 150.416 364.348 164.832C364.348 232.765 313.794 234.542 251.39 234.542C188.987 234.542 138.433 225.063 138.433 164.832C138.433 150.416 145.542 136.988 157.786 125.929C178.126 107.366 212.487 117.24 251.39 117.24C290.294 117.24 324.458 107.169 344.798 125.732Z" fill="#F5CCB3"/>
<path fill-rule="evenodd" clip-rule="evenodd" d="M213.87 168.387C213.87 187.147 203.403 202.156 190.37 202.156C177.336 202.156 166.87 186.95 166.87 168.387C166.87 149.626 177.336 134.618 190.37 134.618C203.403 134.421 213.87 149.626 213.87 168.387Z" fill="white"/>
<path fill-rule="evenodd" clip-rule="evenodd" d="M206.365 168.782C206.365 181.223 199.256 191.294 190.764 191.294C182.075 191.294 175.164 181.223 175.164 168.782C175.164 156.341 182.273 146.269 190.764 146.269C199.256 146.269 206.365 156.341 206.365 168.782Z" fill="#AF5C51"/>
<path fill-rule="evenodd" clip-rule="evenodd" d="M340.058 168.387C340.058 187.147 329.592 202.156 316.559 202.156C303.525 202.156 293.059 186.95 293.059 168.387C293.059 149.626 303.525 134.618 316.559 134.618C329.395 134.421 340.058 149.626 340.058 168.387Z" fill="white"/>
<path fill-rule="evenodd" clip-rule="evenodd" d="M332.357 168.782C332.357 181.223 325.248 191.294 316.756 191.294C308.067 191.294 301.155 181.223 301.155 168.782C301.155 156.341 308.264 146.269 316.756 146.269C325.445 146.269 332.357 156.341 332.357 168.782Z" fill="#AF5C51"/>
<path fill-rule="evenodd" clip-rule="evenodd" d="M257.71 198.404C257.71 201.563 255.143 204.328 251.785 204.328C248.626 204.328 245.861 201.761 245.861 198.404C245.861 195.047 248.428 192.479 251.785 192.479C254.945 192.479 257.71 195.047 257.71 198.404Z" fill="#AF5C51"/>
<path fill-rule="evenodd" clip-rule="evenodd" d="M238.159 213.215C237.764 212.227 238.357 211.24 239.344 210.845C240.332 210.45 241.319 211.042 241.714 212.03C243.294 216.374 247.243 219.139 251.785 219.139C256.327 219.139 260.277 216.177 261.857 212.03C262.252 211.042 263.239 210.45 264.227 210.845C265.214 211.24 265.806 212.227 265.411 213.215C263.437 218.942 257.907 222.891 251.785 222.891C245.664 222.891 240.134 218.942 238.159 213.215Z" fill="#AF5C51"/>
<path fill-rule="evenodd" clip-rule="evenodd" d="M107.626 240.072C107.626 241.652 105.849 242.836 103.479 242.836C101.307 242.836 99.3318 241.652 99.3318 240.072C99.3318 238.492 101.109 237.307 103.479 237.307C105.849 237.307 107.626 238.492 107.626 240.072Z" fill="#C4E5D9"/>
<path fill-rule="evenodd" clip-rule="evenodd" d="M119.08 246.391C119.08 247.971 117.302 249.156 114.933 249.156C112.76 249.156 110.786 247.971 110.786 246.391C110.786 244.811 112.563 243.626 114.933 243.626C117.302 243.626 119.08 244.811 119.08 246.391Z" fill="#C4E5D9"/>
<path fill-rule="evenodd" clip-rule="evenodd" d="M125.991 254.685C125.991 256.265 124.214 257.45 121.844 257.45C119.672 257.45 117.697 256.265 117.697 254.685C117.697 253.105 119.475 251.92 121.844 251.92C124.214 251.723 125.991 253.105 125.991 254.685Z" fill="#C4E5D9"/>
<path fill-rule="evenodd" clip-rule="evenodd" d="M132.311 264.164C132.311 265.744 130.533 266.929 128.164 266.929C125.991 266.929 124.017 265.744 124.017 264.164C124.017 262.584 125.794 261.399 128.164 261.399C130.533 261.202 132.311 262.584 132.311 264.164Z" fill="#C4E5D9"/>
<path fill-rule="evenodd" clip-rule="evenodd" d="M139.223 272.853C139.223 274.433 137.445 275.618 135.075 275.618C132.903 275.618 130.928 274.433 130.928 272.853C130.928 271.273 132.706 270.089 135.075 270.089C137.445 270.089 139.223 271.273 139.223 272.853Z" fill="#C4E5D9"/>
<path fill-rule="evenodd" clip-rule="evenodd" d="M148.702 280.555C148.702 282.135 146.924 283.32 144.554 283.32C142.382 283.32 140.407 282.135 140.407 280.555C140.407 278.975 142.185 277.79 144.554 277.79C146.924 277.593 148.702 278.975 148.702 280.555Z" fill="#C4E5D9"/>
<path fill-rule="evenodd" clip-rule="evenodd" d="M161.933 285.492C161.933 287.072 160.155 288.257 157.786 288.257C155.613 288.257 153.639 287.072 153.639 285.492C153.639 283.912 155.416 282.727 157.786 282.727C160.155 282.727 161.933 283.912 161.933 285.492Z" fill="#C4E5D9"/>
<path fill-rule="evenodd" clip-rule="evenodd" d="M175.164 285.492C175.164 287.072 173.386 288.257 171.017 288.257C168.844 288.257 166.87 287.072 166.87 285.492C166.87 283.912 168.647 282.727 171.017 282.727C173.386 282.727 175.164 283.912 175.164 285.492Z" fill="#C4E5D9"/>
<path fill-rule="evenodd" clip-rule="evenodd" d="M188.592 283.32C188.592 284.899 186.815 286.084 184.445 286.084C182.273 286.084 180.298 284.899 180.298 283.32C180.298 281.74 182.075 280.555 184.445 280.555C186.617 280.555 188.592 281.74 188.592 283.32Z" fill="#C4E5D9"/>
</svg>
